<?xml version="1.0" encoding="utf-8"?>
<!-- Generator: Adobe Illustrator 22.1.0, SVG Export Plug-In . SVG Version: 6.00 Build 0)  -->
<svg version="1.1" id="Layer_1" xmlns="http://www.w3.org/2000/svg" xmlns:xlink="http://www.w3.org/1999/xlink" x="0px" y="0px"
	 viewBox="0 0 500 500" style="enable-background:new 0 0 500 500;" xml:space="preserve">
<style type="text/css">
	.st0{fill:none;stroke:#FFFFFF;stroke-width:10;stroke-miterlimit:10;}
</style>
<path class="st0" d="M234.1,337.6L175,278.5c-19.4-19.4-19.4-51.3,0-70.7l59.1-59.1c19.4-19.4,51.3-19.4,70.7,0l59.1,59.1
	c19.4,19.4,19.4,51.3,0,70.7l-59.1,59.1C285.4,357.1,253.5,357.1,234.1,337.6z"/>
<path class="st0" d="M294.8,337.6l-59.1-59.1c-19.4-19.4-19.4-51.3,0-70.7l59.1-59.1c19.4-19.4,51.3-19.4,70.7,0l59.1,59.1
	c19.4,19.4,19.4,51.3,0,70.7l-59.1,59.1C346,357.1,314.2,357.1,294.8,337.6z"/>
<path class="st0" d="M127.1,337.6L68,278.5c-19.4-19.4-19.4-51.3,0-70.7l59.1-59.1c19.4-19.4,51.3-19.4,70.7,0l59.1,59.1
	c19.4,19.4,19.4,51.3,0,70.7l-59.1,59.1C178.4,357.1,146.5,357.1,127.1,337.6z"/>
</svg>
