<?xml version="1.0" encoding="utf-8"?>
<!-- Generator: Adobe Illustrator 22.1.0, SVG Export Plug-In . SVG Version: 6.00 Build 0)  -->
<svg version="1.1" id="Layer_1" xmlns="http://www.w3.org/2000/svg" xmlns:xlink="http://www.w3.org/1999/xlink" x="0px" y="0px"
	 viewBox="0 0 450 300" style="enable-background:new 0 0 450 300;" xml:space="preserve">
<style type="text/css">
	.st0{fill:#FFFFFF;stroke:#8492A5;stroke-width:2;}
	.st1{fill:none;stroke:#8492A5;stroke-width:2;}
	.st2{fill:none;stroke:#8492A5;stroke-linecap:square;}
	.st3{fill:#FFFFFF;stroke:#8492A5;}
</style>
<g id="Page-1" sketch:type="MSPage">
	<g id="Laptop" transform="translate(1.000000, 1.000000)" sketch:type="MSLayerGroup">
		<path id="bezel_1_" sketch:type="MSShapeGroup" class="st0" d="M354.7,50.7H94.2c-7.1,0-13.1,5.8-13.1,13V235h286.7V63.7
			C367.8,56.5,361.8,50.7,354.7,50.7z"/>
		<circle id="webcam" sketch:type="MSShapeGroup" class="st1" cx="225" cy="60.7" r="2.1">
		</circle>
		<g id="bottom" transform="translate(0.000000, 351.000000)" sketch:type="MSShapeGroup">
			<path id="Shape" class="st0" d="M379.3-99.7H69.7c-16.1,0-26.9-5.5-26.9-7.9v-7.1c0-0.7,0.7-1.3,1.6-1.3h360.3
				c0.9,0,1.6,0.6,1.6,1.3v7.4C406.2-105.4,397.8-99.7,379.3-99.7z"/>
			<path id="Line" class="st2" d="M43.1-108.4h362.2"/>
		</g>
		<rect id="screen_1_" x="92.7" y="71.2" sketch:type="MSShapeGroup" class="st3" width="263.1" height="153.3">
		</rect>
		<path id="touchpad" sketch:type="MSShapeGroup" class="st3" d="M263.9,235.5v1.6c0,1.2-2.3,1.5-4,1.5h-70.7
			c-1.8,0-4.1-0.3-4.1-1.5v-1.6"/>
	</g>
</g>
</svg>
