<?xml version="1.0" encoding="utf-8"?>
<!-- Generator: Adobe Illustrator 22.1.0, SVG Export Plug-In . SVG Version: 6.00 Build 0)  -->
<svg version="1.1" id="Layer_1" xmlns="http://www.w3.org/2000/svg" xmlns:xlink="http://www.w3.org/1999/xlink" x="0px" y="0px"
	 viewBox="0 0 6060 965" style="enable-background:new 0 0 6060 965;" xml:space="preserve">
<style type="text/css">
	.st0{opacity:0.14;fill:#F2F2F2;}
	.st1{opacity:8.000000e-02;fill:#F2F2F2;}
	.st2{opacity:0.2;fill:#F2F2F2;}
	.st3{opacity:0.26;fill:#F2F2F2;}
	.st4{opacity:5.000000e-02;fill:#F2F2F2;}
</style>
<g>
	<g>
		<path class="st0" d="M2998.5,224.1c-24.5,0.7-48.9,1.6-73.4,2.6c-4.5,0.2-8.2-3.8-8.2-8.8l0,0c0-6,4.5-11.2,9.9-11.5
			c23.3-1.1,46.6-2,69.9-2.9c5.4-0.2,9.9,4.7,9.9,10.9l0,0C3006.7,219.7,3003,224,2998.5,224.1z"/>
		<path class="st0" d="M3280.6,493.8c-24.4-1.3-48.8-2.5-73.3-3.7c-4.5-0.2-8.1-4.8-8.1-10.1c0,0,0,0,0,0c0-6.5,4.5-11.6,9.9-11.4
			c23.3,1,46.6,2.1,69.8,3.3c5.4,0.3,9.9,5.9,9.8,12.5c0,0,0,0,0,0C3288.8,489.8,3285.1,494.1,3280.6,493.8z"/>
		<path class="st0" d="M2509.5,147.4c-24.4,3.4-48.9,6.9-73.3,10.6c-4.5,0.7-8.1-2.1-8.2-6.3l0,0c0-5,4.4-9.8,9.9-10.6
			c23.3-3.7,46.5-7.2,69.8-10.7c5.4-0.8,9.9,2.8,9.9,8c0,0,0,0,0,0C2517.7,142.7,2514,146.7,2509.5,147.4z"/>
		<path class="st0" d="M2842.2,396.1c-24.4-0.1-48.9-0.1-73.3-0.1c-4.5,0-8.1-3.9-8.2-8.6c0,0,0,0,0,0c0-5.7,4.4-10.5,9.9-10.5
			c23.3-0.2,46.6-0.3,69.9-0.4c5.4,0,9.9,4.8,9.9,10.8c0,0,0,0,0,0C2850.4,392.2,2846.7,396.1,2842.2,396.1z"/>
		<path class="st0" d="M3625.2,124.3c-24.4-1-48.7-1.9-73.1-2.6c-4.5-0.1-8.1-4.8-8.1-10.5c0,0,0,0,0,0c0-6.8,4.5-12.3,9.9-12.2
			c23.2,0.6,46.4,1.4,69.7,2.3c5.4,0.2,9.8,6,9.8,12.9c0,0,0,0,0,0C3633.3,120,3629.6,124.5,3625.2,124.3z"/>
		<path class="st1" d="M2769.2,627.9c-24.4-1.9-48.8-3.9-73.2-5.8c-4.5-0.4-8.1-4.4-8.1-9l0,0c0-5.6,4.4-9.9,9.9-9.5
			c23.3,1.7,46.5,3.3,69.8,5c5.4,0.4,9.9,5.4,9.9,11.2l0,0C2777.4,624.7,2773.7,628.3,2769.2,627.9z"/>
		<path class="st0" d="M3079.3,600.8c-24.4-1.7-48.8-3.4-73.3-5.1c-4.5-0.3-8.1-4.7-8.1-9.8c0,0,0,0,0,0c0-6.2,4.4-11,9.9-10.6
			c23.3,1.5,46.5,3,69.8,4.5c5.4,0.4,9.9,5.8,9.9,12.2l0,0C3087.5,597.1,3083.8,601.1,3079.3,600.8z"/>
		<path class="st2" d="M3259.3,35.2c-24.5,0.8-48.9,1.7-73.4,2.8c-4.5,0.2-8.1-4-8.1-9.3c0,0,0,0,0,0c0-6.5,4.5-12,9.9-12.2
			c23.3-1.1,46.6-2.1,69.9-3c5.4-0.2,9.9,5,9.9,11.6l0,0C3267.5,30.5,3263.8,35.1,3259.3,35.2z"/>
		<path class="st0" d="M2555,437.3c-24.4,0-48.8,0.1-73.3,0.3c-4.5,0-8.1-3.4-8.2-7.6c0,0,0,0,0,0c0-5.1,4.4-9.3,9.9-9.4
			c23.3-0.3,46.5-0.6,69.8-0.8c5.4-0.1,9.9,4.3,9.9,9.6c0,0,0,0,0,0C2563.1,433.7,2559.5,437.3,2555,437.3z"/>
		<path class="st0" d="M2282.7,277c-24.4,2.8-48.7,5.8-73.1,8.8c-4.5,0.6-8.1-1.9-8.1-5.6l0,0c0-4.4,4.4-8.6,9.8-9.3
			c23.2-3.1,46.4-6.1,69.7-9.1c5.4-0.7,9.9,2.6,9.9,7.2l0,0C2290.8,273,2287.2,276.5,2282.7,277z"/>
		<path class="st1" d="M3524.9,353.6c-24.4-1.2-48.8-2.3-73.2-3.4c-4.5-0.2-8.1-4.9-8.1-10.5c0,0,0,0,0,0c0-6.8,4.5-12.1,9.9-11.9
			c23.3,0.9,46.5,1.9,69.8,3c5.4,0.3,9.8,6,9.8,12.9c0,0,0,0,0,0C3533.1,349.4,3529.4,353.9,3524.9,353.6z"/>
		<path class="st0" d="M2218.3,616.4c-24.4-2.1-48.8-4.2-73.2-6.3c-4.5-0.4-8.1-3.5-8.1-7l0,0c0-4.2,4.4-7.3,9.9-6.9
			c23.2,1.8,46.5,3.5,69.8,5.3c5.4,0.4,9.9,4.4,9.9,8.9l0,0C2226.4,614.1,2222.8,616.8,2218.3,616.4z"/>
		<path class="st0" d="M3660.4,656.2c-24.4-2-48.8-3.9-73.2-5.9c-4.5-0.4-8.1-5.3-8.1-10.9l0,0c0-6.9,4.5-12.1,9.9-11.7
			c23.3,1.8,46.5,3.6,69.8,5.5c5.4,0.4,9.9,6.4,9.8,13.3c0,0,0,0,0,0C3668.6,652.2,3664.9,656.6,3660.4,656.2z"/>
		<path class="st3" d="M2718.9,250.4c-41.3,2.5-82.5,5.2-123.7,8.3c-7.6,0.6-13.8-5.1-13.8-12.5v0c0-9,7.5-17.1,16.6-17.9
			c39.3-3.4,78.6-6.5,117.9-9.4c9.2-0.7,16.7,6.7,16.7,16.3c0,0,0,0,0,0C2732.6,243.1,2726.4,249.9,2718.9,250.4z"/>
		<path class="st2" d="M3824.3,507.4c-41.1-3.3-82.2-6.4-123.4-9.4c-7.5-0.5-13.7-8.9-13.7-18.5c0,0,0,0,0,0
			c0-11.7,7.5-20.7,16.6-20c39.2,2.8,78.4,5.7,117.5,8.8c9.1,0.7,16.6,10.9,16.6,22.6c0,0,0,0,0,0
			C3838,500.6,3831.8,508,3824.3,507.4z"/>
		<path class="st4" d="M2120.2,462.7c-24.4,0.4-48.7,1-73.1,1.5c-4.5,0.1-8.1-2.4-8.1-5.7l0,0c0-3.9,4.4-7.2,9.8-7.4
			c23.2-0.8,46.4-1.5,69.6-2.1c5.4-0.2,9.8,3.1,9.9,7.3c0,0,0,0,0,0C2128.3,459.8,2124.7,462.6,2120.2,462.7z"/>
	</g>
</g>
<g>
	<g>
		<path class="st0" d="M1129.5,240.1c-24.5,0.7-48.9,1.6-73.4,2.6c-4.5,0.2-8.2-3.8-8.2-8.8l0,0c0-6,4.5-11.2,9.9-11.5
			c23.3-1.1,46.6-2,69.9-2.9c5.4-0.2,9.9,4.7,9.9,10.9l0,0C1137.7,235.7,1134,240,1129.5,240.1z"/>
		<path class="st0" d="M1411.6,509.8c-24.4-1.3-48.8-2.5-73.3-3.7c-4.5-0.2-8.1-4.8-8.1-10.1c0,0,0,0,0,0c0-6.5,4.5-11.6,9.9-11.4
			c23.3,1,46.6,2.1,69.8,3.3c5.4,0.3,9.9,5.9,9.8,12.5c0,0,0,0,0,0C1419.8,505.8,1416.1,510.1,1411.6,509.8z"/>
		<path class="st0" d="M640.5,163.4c-24.4,3.4-48.9,6.9-73.3,10.6c-4.5,0.7-8.1-2.1-8.2-6.3l0,0c0-5,4.4-9.8,9.9-10.6
			c23.3-3.7,46.5-7.2,69.8-10.7c5.4-0.8,9.9,2.8,9.9,8l0,0C648.7,158.7,645,162.7,640.5,163.4z"/>
		<path class="st0" d="M973.2,412.1c-24.4-0.1-48.9-0.1-73.3-0.1c-4.5,0-8.1-3.9-8.2-8.6l0,0c0-5.7,4.4-10.5,9.9-10.5
			c23.3-0.2,46.6-0.3,69.9-0.4c5.4,0,9.9,4.8,9.9,10.8c0,0,0,0,0,0C981.4,408.2,977.7,412.1,973.2,412.1z"/>
		<path class="st0" d="M1756.2,140.3c-24.4-1-48.7-1.9-73.1-2.6c-4.5-0.1-8.1-4.8-8.1-10.5c0,0,0,0,0,0c0-6.8,4.5-12.3,9.9-12.2
			c23.2,0.6,46.4,1.4,69.7,2.3c5.4,0.2,9.8,6,9.8,12.9l0,0C1764.3,136,1760.6,140.5,1756.2,140.3z"/>
		<path class="st1" d="M900.2,643.9c-24.4-1.9-48.8-3.9-73.2-5.8c-4.5-0.4-8.1-4.4-8.1-9c0,0,0,0,0,0c0-5.6,4.4-9.9,9.9-9.5
			c23.3,1.7,46.5,3.3,69.8,5c5.4,0.4,9.9,5.4,9.9,11.2c0,0,0,0,0,0C908.4,640.7,904.7,644.3,900.2,643.9z"/>
		<path class="st0" d="M1210.3,616.8c-24.4-1.7-48.8-3.4-73.3-5.1c-4.5-0.3-8.1-4.7-8.1-9.8l0,0c0-6.2,4.4-11,9.9-10.6
			c23.3,1.5,46.5,3,69.8,4.5c5.4,0.4,9.9,5.8,9.9,12.2c0,0,0,0,0,0C1218.5,613.1,1214.8,617.1,1210.3,616.8z"/>
		<path class="st2" d="M1390.3,51.2c-24.5,0.8-48.9,1.7-73.4,2.8c-4.5,0.2-8.1-4-8.1-9.3c0,0,0,0,0,0c0-6.5,4.5-12,9.9-12.2
			c23.3-1.1,46.6-2.1,69.9-3c5.4-0.2,9.9,5,9.9,11.6l0,0C1398.5,46.5,1394.8,51.1,1390.3,51.2z"/>
		<path class="st0" d="M686,453.3c-24.4,0-48.8,0.1-73.3,0.3c-4.5,0-8.1-3.4-8.2-7.6c0,0,0,0,0,0c0-5.1,4.4-9.3,9.9-9.4
			c23.3-0.3,46.5-0.6,69.8-0.8c5.4-0.1,9.9,4.3,9.9,9.6c0,0,0,0,0,0C694.1,449.7,690.5,453.3,686,453.3z"/>
		<path class="st0" d="M413.7,293c-24.4,2.8-48.7,5.8-73.1,8.8c-4.5,0.6-8.1-1.9-8.1-5.6c0,0,0,0,0,0c0-4.4,4.4-8.6,9.8-9.3
			c23.2-3.1,46.4-6.1,69.7-9.1c5.4-0.7,9.9,2.6,9.9,7.2l0,0C421.8,289,418.2,292.5,413.7,293z"/>
		<path class="st1" d="M1655.9,369.6c-24.4-1.2-48.8-2.3-73.2-3.4c-4.5-0.2-8.1-4.9-8.1-10.5l0,0c0-6.8,4.5-12.1,9.9-11.9
			c23.3,0.9,46.5,1.9,69.8,3c5.4,0.3,9.8,6,9.8,12.9l0,0C1664.1,365.4,1660.4,369.9,1655.9,369.6z"/>
		<path class="st0" d="M349.3,632.4c-24.4-2.1-48.8-4.2-73.2-6.3c-4.5-0.4-8.1-3.5-8.1-7c0,0,0,0,0,0c0-4.2,4.4-7.3,9.9-6.9
			c23.2,1.8,46.5,3.5,69.8,5.3c5.4,0.4,9.9,4.4,9.9,8.9c0,0,0,0,0,0C357.4,630.1,353.8,632.8,349.3,632.4z"/>
		<path class="st0" d="M1791.4,672.2c-24.4-2-48.8-3.9-73.2-5.9c-4.5-0.4-8.1-5.3-8.1-10.9c0,0,0,0,0,0c0-6.9,4.5-12.1,9.9-11.7
			c23.3,1.8,46.5,3.6,69.8,5.5c5.4,0.4,9.9,6.4,9.8,13.3c0,0,0,0,0,0C1799.6,668.2,1795.9,672.6,1791.4,672.2z"/>
		<path class="st3" d="M849.9,266.4c-41.3,2.5-82.5,5.2-123.7,8.3c-7.6,0.6-13.8-5.1-13.8-12.5c0,0,0,0,0,0c0-9,7.5-17.1,16.6-17.9
			c39.3-3.4,78.6-6.5,117.9-9.4c9.2-0.7,16.7,6.7,16.7,16.3c0,0,0,0,0,0C863.6,259.1,857.4,265.9,849.9,266.4z"/>
		<path class="st2" d="M1955.3,523.4c-41.1-3.3-82.2-6.4-123.4-9.4c-7.5-0.5-13.7-8.9-13.7-18.5v0c0-11.7,7.5-20.7,16.6-20
			c39.2,2.8,78.4,5.7,117.5,8.8c9.1,0.7,16.6,10.9,16.6,22.6c0,0,0,0,0,0C1969,516.6,1962.8,524,1955.3,523.4z"/>
		<path class="st4" d="M251.2,478.7c-24.4,0.4-48.7,1-73.1,1.5c-4.5,0.1-8.1-2.4-8.1-5.7c0,0,0,0,0,0c0-3.9,4.4-7.2,9.8-7.4
			c23.2-0.8,46.4-1.5,69.6-2.1c5.4-0.2,9.8,3.1,9.9,7.3l0,0C259.3,475.8,255.7,478.6,251.2,478.7z"/>
	</g>
</g>
<g>
	<g>
		<path class="st0" d="M5017.5,216.1c-24.5,0.7-48.9,1.6-73.4,2.6c-4.5,0.2-8.2-3.8-8.2-8.8l0,0c0-6,4.5-11.2,9.9-11.5
			c23.3-1.1,46.6-2,69.9-2.9c5.4-0.2,9.9,4.7,9.9,10.9l0,0C5025.7,211.7,5022,216,5017.5,216.1z"/>
		<path class="st0" d="M5299.6,485.8c-24.4-1.3-48.8-2.5-73.3-3.7c-4.5-0.2-8.1-4.8-8.1-10.1c0,0,0,0,0,0c0-6.5,4.5-11.6,9.9-11.4
			c23.3,1,46.6,2.1,69.8,3.3c5.4,0.3,9.9,5.9,9.9,12.5c0,0,0,0,0,0C5307.8,481.8,5304.1,486.1,5299.6,485.8z"/>
		<path class="st0" d="M4528.5,139.4c-24.4,3.4-48.9,6.9-73.3,10.6c-4.5,0.7-8.1-2.1-8.2-6.3l0,0c0-5,4.4-9.8,9.9-10.6
			c23.3-3.7,46.5-7.2,69.8-10.7c5.4-0.8,9.9,2.8,9.9,8l0,0C4536.7,134.7,4533,138.7,4528.5,139.4z"/>
		<path class="st0" d="M4861.2,388.1c-24.4-0.1-48.9-0.1-73.3-0.1c-4.5,0-8.1-3.9-8.2-8.6l0,0c0-5.7,4.4-10.5,9.9-10.5
			c23.3-0.2,46.6-0.3,69.9-0.4c5.4,0,9.9,4.8,9.9,10.8c0,0,0,0,0,0C4869.4,384.2,4865.7,388.1,4861.2,388.1z"/>
		<path class="st0" d="M5644.2,116.3c-24.4-1-48.7-1.9-73.1-2.6c-4.5-0.1-8.1-4.8-8.1-10.5c0,0,0,0,0,0c0-6.8,4.5-12.3,9.9-12.2
			c23.2,0.6,46.4,1.4,69.7,2.3c5.4,0.2,9.8,6,9.8,12.9l0,0C5652.3,112,5648.6,116.5,5644.2,116.3z"/>
		<path class="st1" d="M4788.2,619.9c-24.4-1.9-48.8-3.9-73.2-5.8c-4.5-0.4-8.1-4.4-8.1-9c0,0,0,0,0,0c0-5.6,4.4-9.9,9.9-9.5
			c23.3,1.7,46.5,3.3,69.8,5c5.4,0.4,9.9,5.4,9.9,11.2c0,0,0,0,0,0C4796.4,616.7,4792.7,620.3,4788.2,619.9z"/>
		<path class="st0" d="M5098.3,592.8c-24.4-1.7-48.8-3.4-73.3-5.1c-4.5-0.3-8.1-4.7-8.1-9.8l0,0c0-6.2,4.4-11,9.9-10.6
			c23.3,1.5,46.5,3,69.8,4.5c5.4,0.4,9.9,5.8,9.9,12.2c0,0,0,0,0,0C5106.5,589.1,5102.8,593.1,5098.3,592.8z"/>
		<path class="st2" d="M5278.3,27.2c-24.5,0.8-48.9,1.7-73.4,2.8c-4.5,0.2-8.1-4-8.1-9.3c0,0,0,0,0,0c0-6.5,4.5-12,9.9-12.2
			c23.3-1.1,46.6-2.1,69.9-3c5.4-0.2,9.9,5,9.9,11.6l0,0C5286.5,22.5,5282.8,27.1,5278.3,27.2z"/>
		<path class="st0" d="M4574,429.3c-24.4,0-48.8,0.1-73.3,0.3c-4.5,0-8.1-3.4-8.2-7.6c0,0,0,0,0,0c0-5.1,4.4-9.3,9.9-9.4
			c23.3-0.3,46.5-0.6,69.8-0.8c5.4-0.1,9.9,4.3,9.9,9.6c0,0,0,0,0,0C4582.1,425.7,4578.5,429.3,4574,429.3z"/>
		<path class="st0" d="M4301.7,269c-24.4,2.8-48.7,5.8-73.1,8.8c-4.5,0.6-8.1-1.9-8.1-5.6c0,0,0,0,0,0c0-4.4,4.4-8.6,9.8-9.3
			c23.2-3.1,46.4-6.1,69.7-9.1c5.4-0.7,9.9,2.6,9.9,7.2l0,0C4309.8,265,4306.2,268.5,4301.7,269z"/>
		<path class="st1" d="M5543.9,345.6c-24.4-1.2-48.8-2.3-73.2-3.4c-4.5-0.2-8.1-4.9-8.1-10.5l0,0c0-6.8,4.5-12.1,9.9-11.9
			c23.3,0.9,46.5,1.9,69.8,3c5.4,0.3,9.8,6,9.8,12.9l0,0C5552.1,341.4,5548.4,345.9,5543.9,345.6z"/>
		<path class="st0" d="M4237.3,608.4c-24.4-2.1-48.8-4.2-73.2-6.3c-4.5-0.4-8.1-3.5-8.1-7c0,0,0,0,0,0c0-4.2,4.4-7.3,9.9-6.9
			c23.2,1.8,46.5,3.5,69.8,5.3c5.4,0.4,9.9,4.4,9.9,8.9c0,0,0,0,0,0C4245.4,606.1,4241.8,608.8,4237.3,608.4z"/>
		<path class="st0" d="M5679.4,648.2c-24.4-2-48.8-3.9-73.2-5.9c-4.5-0.4-8.1-5.3-8.1-10.9c0,0,0,0,0,0c0-6.9,4.5-12.1,9.9-11.7
			c23.3,1.8,46.5,3.6,69.8,5.5c5.4,0.4,9.9,6.4,9.8,13.3c0,0,0,0,0,0C5687.6,644.2,5683.9,648.6,5679.4,648.2z"/>
		<path class="st3" d="M4737.9,242.4c-41.3,2.5-82.5,5.2-123.7,8.3c-7.6,0.6-13.8-5.1-13.8-12.5c0,0,0,0,0,0c0-9,7.5-17.1,16.6-17.9
			c39.3-3.4,78.6-6.5,117.9-9.4c9.2-0.7,16.7,6.7,16.7,16.3c0,0,0,0,0,0C4751.6,235.1,4745.4,241.9,4737.9,242.4z"/>
		<path class="st2" d="M5843.3,499.4c-41.1-3.3-82.2-6.4-123.4-9.4c-7.5-0.5-13.7-8.9-13.7-18.5v0c0-11.7,7.5-20.7,16.6-20
			c39.2,2.8,78.4,5.7,117.5,8.8c9.1,0.7,16.6,10.9,16.6,22.6c0,0,0,0,0,0C5857,492.6,5850.8,500,5843.3,499.4z"/>
		<path class="st4" d="M4139.2,454.7c-24.4,0.4-48.7,1-73.1,1.5c-4.5,0.1-8.1-2.4-8.1-5.7c0,0,0,0,0,0c0-3.9,4.4-7.2,9.8-7.4
			c23.2-0.8,46.4-1.5,69.6-2.1c5.4-0.2,9.8,3.1,9.9,7.3l0,0C4147.3,451.8,4143.7,454.6,4139.2,454.7z"/>
	</g>
</g>
</svg>
